<svg width="23" height="25" viewBox="0 0 23 25" fill="none" xmlns="http://www.w3.org/2000/svg">
<path d="M16.25 18.75C16.7708 18.75 17.2135 18.5677 17.5781 18.2031C17.9427 17.8385 18.125 17.3958 18.125 16.875C18.125 16.3542 17.9427 15.9115 17.5781 15.5469C17.2135 15.1823 16.7708 15 16.25 15C15.7292 15 15.2865 15.1823 14.9219 15.5469C14.5573 15.9115 14.375 16.3542 14.375 16.875C14.375 17.3958 14.5573 17.8385 14.9219 18.2031C15.2865 18.5677 15.7292 18.75 16.25 18.75ZM16.25 22.5C16.8958 22.5 17.4896 22.349 18.0312 22.0469C18.5729 21.7448 19.0104 21.3438 19.3438 20.8438C18.8854 20.5729 18.3958 20.3646 17.875 20.2188C17.3542 20.0729 16.8125 20 16.25 20C15.6875 20 15.1458 20.0729 14.625 20.2188C14.1042 20.3646 13.6146 20.5729 13.1562 20.8438C13.4896 21.3438 13.9271 21.7448 14.4688 22.0469C15.0104 22.349 15.6042 22.5 16.25 22.5ZM10 25C7.10417 24.2708 4.71354 22.6094 2.82812 20.0156C0.942708 17.4219 0 14.5417 0 11.375V3.75L10 0L20 3.75V10.8438C19.6042 10.6771 19.1979 10.526 18.7812 10.3906C18.3646 10.2552 17.9375 10.1562 17.5 10.0938V5.5L10 2.6875L2.5 5.5V11.375C2.5 12.3542 2.63021 13.3333 2.89062 14.3125C3.15104 15.2917 3.51562 16.224 3.98438 17.1094C4.45312 17.9948 5.02083 18.8125 5.6875 19.5625C6.35417 20.3125 7.09375 20.9375 7.90625 21.4375C8.13542 22.1042 8.4375 22.7396 8.8125 23.3438C9.1875 23.9479 9.61458 24.4896 10.0938 24.9688C10.0729 24.9688 10.0573 24.974 10.0469 24.9844C10.0365 24.9948 10.0208 25 10 25ZM16.25 25C14.5208 25 13.0469 24.3906 11.8281 23.1719C10.6094 21.9531 10 20.4792 10 18.75C10 17.0208 10.6094 15.5469 11.8281 14.3281C13.0469 13.1094 14.5208 12.5 16.25 12.5C17.9792 12.5 19.4531 13.1094 20.6719 14.3281C21.8906 15.5469 22.5 17.0208 22.5 18.75C22.5 20.4792 21.8906 21.9531 20.6719 23.1719C19.4531 24.3906 17.9792 25 16.25 25Z" fill="#138601"/>
</svg>
