<svg width="22" height="16" viewBox="0 0 22 16" fill="none" xmlns="http://www.w3.org/2000/svg">
<path d="M0 15.5557V12.8334C0 12.2825 0.141782 11.7762 0.425347 11.3143C0.708912 10.8525 1.08565 10.5001 1.55556 10.2571C2.56019 9.75474 3.58102 9.378 4.61806 9.12684C5.65509 8.87569 6.70833 8.75011 7.77778 8.75011C8.84722 8.75011 9.90046 8.87569 10.9375 9.12684C11.9745 9.378 12.9954 9.75474 14 10.2571C14.4699 10.5001 14.8466 10.8525 15.1302 11.3143C15.4138 11.7762 15.5556 12.2825 15.5556 12.8334V15.5557H0ZM17.5 15.5557V12.639C17.5 11.926 17.3015 11.2414 16.9045 10.5852C16.5075 9.92893 15.9444 9.36585 15.2153 8.89594C16.0417 8.99316 16.8194 9.15925 17.5486 9.39421C18.2778 9.62916 18.9583 9.91678 19.5903 10.2571C20.1736 10.5811 20.6192 10.9417 20.9271 11.3387C21.235 11.7356 21.3889 12.1691 21.3889 12.639V15.5557H17.5ZM7.77778 7.77789C6.70833 7.77789 5.79282 7.3971 5.03125 6.63552C4.26968 5.87395 3.88889 4.95844 3.88889 3.889C3.88889 2.81955 4.26968 1.90404 5.03125 1.14247C5.79282 0.380896 6.70833 0.000108719 7.77778 0.000108719C8.84722 0.000108719 9.76273 0.380896 10.5243 1.14247C11.2859 1.90404 11.6667 2.81955 11.6667 3.889C11.6667 4.95844 11.2859 5.87395 10.5243 6.63552C9.76273 7.3971 8.84722 7.77789 7.77778 7.77789ZM17.5 3.889C17.5 4.95844 17.1192 5.87395 16.3576 6.63552C15.5961 7.3971 14.6806 7.77789 13.6111 7.77789C13.4329 7.77789 13.206 7.75763 12.9306 7.71712C12.6551 7.67661 12.4282 7.63205 12.25 7.58344C12.6875 7.06492 13.0237 6.48969 13.2587 5.85775C13.4936 5.2258 13.6111 4.56955 13.6111 3.889C13.6111 3.20844 13.4936 2.55219 13.2587 1.92025C13.0237 1.2883 12.6875 0.713071 12.25 0.194552C12.4769 0.113534 12.7037 0.0608721 12.9306 0.0365667C13.1574 0.0122614 13.3843 0.000108719 13.6111 0.000108719C14.6806 0.000108719 15.5961 0.380896 16.3576 1.14247C17.1192 1.90404 17.5 2.81955 17.5 3.889ZM1.94444 13.6112H13.6111V12.8334C13.6111 12.6552 13.5666 12.4932 13.4774 12.3473C13.3883 12.2015 13.2708 12.0881 13.125 12.0071C12.25 11.5696 11.3669 11.2414 10.4757 11.0227C9.58449 10.8039 8.68519 10.6946 7.77778 10.6946C6.87037 10.6946 5.97107 10.8039 5.07986 11.0227C4.18866 11.2414 3.30556 11.5696 2.43056 12.0071C2.28472 12.0881 2.16725 12.2015 2.07812 12.3473C1.989 12.4932 1.94444 12.6552 1.94444 12.8334V13.6112ZM7.77778 5.83344C8.3125 5.83344 8.77026 5.64305 9.15104 5.26226C9.53183 4.88147 9.72222 4.42372 9.72222 3.889C9.72222 3.35427 9.53183 2.89652 9.15104 2.51573C8.77026 2.13495 8.3125 1.94455 7.77778 1.94455C7.24306 1.94455 6.7853 2.13495 6.40451 2.51573C6.02373 2.89652 5.83333 3.35427 5.83333 3.889C5.83333 4.42372 6.02373 4.88147 6.40451 5.26226C6.7853 5.64305 7.24306 5.83344 7.77778 5.83344Z" fill="#475569"/>
</svg>
